<svg width="80" height="80" viewBox="0 0 80 80" fill="none" xmlns="http://www.w3.org/2000/svg">
  <defs>
    <linearGradient id="dataMlGrad" x1="0%" y1="0%" x2="100%" y2="100%">
      <stop offset="0%" style="stop-color:#f2b705;stop-opacity:1" />
      <stop offset="100%" style="stop-color:#cc9900;stop-opacity:1" />
    </linearGradient>
  </defs>
  
  <!-- Фон -->
  <circle cx="40" cy="40" r="38" fill="url(#dataMlGrad)" stroke="#ffffff" stroke-width="2"/>
  
  <!-- Мозг ИИ -->
  <ellipse cx="40" cy="30" rx="15" ry="12" fill="#ffffff" opacity="0.9"/>
  <ellipse cx="35" cy="28" rx="3" ry="2" fill="#f2b705"/>
  <ellipse cx="45" cy="28" rx="3" ry="2" fill="#f2b705"/>
  <ellipse cx="40" cy="32" rx="4" ry="3" fill="#f2b705"/>
  
  <!-- Соединительные линии -->
  <path d="M25 30 Q20 35 25 40" stroke="#ffffff" stroke-width="2" fill="none"/>
  <path d="M55 30 Q60 35 55 40" stroke="#ffffff" stroke-width="2" fill="none"/>
  
  <!-- База данных -->
  <ellipse cx="25" cy="45" rx="8" ry="4" fill="#ffffff" opacity="0.9"/>
  <ellipse cx="25" cy="50" rx="8" ry="4" fill="#ffffff" opacity="0.9"/>
  <ellipse cx="25" cy="55" rx="8" ry="4" fill="#ffffff" opacity="0.9"/>
  <rect x="17" y="45" width="16" height="10" fill="none" stroke="#ffffff" stroke-width="2"/>
  
  <!-- График -->
  <rect x="45" y="40" width="20" height="15" fill="#ffffff" opacity="0.9"/>
  <rect x="47" y="42" width="16" height="11" fill="#1a1a1a"/>
  
  <!-- Линии графика -->
  <path d="M48 50 L50 48 L52 46 L54 44 L56 42 L58 45 L60 47" stroke="#f2b705" stroke-width="2" fill="none"/>
  <path d="M48 52 L50 50 L52 48 L54 46 L56 48 L58 50 L60 52" stroke="#00ff00" stroke-width="2" fill="none"/>
  
  <!-- Точки данных -->
  <circle cx="50" cy="48" r="1" fill="#f2b705"/>
  <circle cx="54" cy="44" r="1" fill="#f2b705"/>
  <circle cx="58" cy="45" r="1" fill="#f2b705"/>
  <circle cx="52" cy="48" r="1" fill="#00ff00"/>
  <circle cx="56" cy="48" r="1" fill="#00ff00"/>
  <circle cx="60" cy="52" r="1" fill="#00ff00"/>
  
  <!-- Чипы -->
  <rect x="30" y="60" width="8" height="6" rx="1" fill="#ffffff" opacity="0.9"/>
  <rect x="32" y="61" width="4" height="4" fill="#f2b705"/>
  <rect x="42" y="60" width="8" height="6" rx="1" fill="#ffffff" opacity="0.9"/>
  <rect x="44" y="61" width="4" height="4" fill="#f2b705"/>
  
  <!-- Соединительные линии к чипам -->
  <path d="M40 42 L35 60" stroke="#ffffff" stroke-width="1" fill="none"/>
  <path d="M40 42 L45 60" stroke="#ffffff" stroke-width="1" fill="none"/>
</svg>
