<svg width="80" height="80" viewBox="0 0 80 80" fill="none" xmlns="http://www.w3.org/2000/svg">
  <defs>
    <linearGradient id="devopsGrad" x1="0%" y1="0%" x2="100%" y2="100%">
      <stop offset="0%" style="stop-color:#00b2ff;stop-opacity:1" />
      <stop offset="100%" style="stop-color:#0088cc;stop-opacity:1" />
    </linearGradient>
  </defs>
  
  <!-- Фон -->
  <circle cx="40" cy="40" r="38" fill="url(#devopsGrad)" stroke="#ffffff" stroke-width="2"/>
  
  <!-- Контейнеры Docker -->
  <rect x="20" y="20" width="15" height="15" rx="2" fill="#ffffff" opacity="0.9"/>
  <rect x="22" y="22" width="11" height="11" rx="1" fill="#00b2ff"/>
  <text x="27.5" y="30" text-anchor="middle" fill="#ffffff" font-size="8" font-family="Arial">D</text>
  
  <rect x="45" y="20" width="15" height="15" rx="2" fill="#ffffff" opacity="0.9"/>
  <rect x="47" y="22" width="11" height="11" rx="1" fill="#00b2ff"/>
  <text x="52.5" y="30" text-anchor="middle" fill="#ffffff" font-size="8" font-family="Arial">D</text>
  
  <rect x="32.5" y="40" width="15" height="15" rx="2" fill="#ffffff" opacity="0.9"/>
  <rect x="34.5" y="42" width="11" height="11" rx="1" fill="#00b2ff"/>
  <text x="40" y="50" text-anchor="middle" fill="#ffffff" font-size="8" font-family="Arial">D</text>
  
  <!-- Стрелки CI/CD -->
  <path d="M35 27.5 L40 32.5" stroke="#ffffff" stroke-width="2" fill="none" marker-end="url(#arrowhead)"/>
  <path d="M45 32.5 L40 37.5" stroke="#ffffff" stroke-width="2" fill="none" marker-end="url(#arrowhead)"/>
  <path d="M40 37.5 L40 42" stroke="#ffffff" stroke-width="2" fill="none" marker-end="url(#arrowhead)"/>
  
  <!-- Облако -->
  <ellipse cx="40" cy="65" rx="12" ry="6" fill="#ffffff" opacity="0.9"/>
  <ellipse cx="35" cy="63" rx="6" ry="4" fill="#ffffff" opacity="0.9"/>
  <ellipse cx="45" cy="63" rx="6" ry="4" fill="#ffffff" opacity="0.9"/>
  <text x="40" y="68" text-anchor="middle" fill="#00b2ff" font-size="6" font-family="Arial">CLOUD</text>
  
  <defs>
    <marker id="arrowhead" markerWidth="10" markerHeight="7" refX="9" refY="3.5" orient="auto">
      <polygon points="0 0, 10 3.5, 0 7" fill="#ffffff"/>
    </marker>
  </defs>
</svg>
