<svg width="80" height="80" viewBox="0 0 80 80" fill="none" xmlns="http://www.w3.org/2000/svg">
  <defs>
    <linearGradient id="frontendGrad" x1="0%" y1="0%" x2="100%" y2="100%">
      <stop offset="0%" style="stop-color:#ff7b00;stop-opacity:1" />
      <stop offset="100%" style="stop-color:#cc5500;stop-opacity:1" />
    </linearGradient>
  </defs>
  
  <!-- Фон -->
  <circle cx="40" cy="40" r="38" fill="url(#frontendGrad)" stroke="#ffffff" stroke-width="2"/>
  
  <!-- Монитор -->
  <rect x="20" y="25" width="40" height="25" rx="3" fill="#ffffff" opacity="0.9"/>
  <rect x="22" y="27" width="36" height="21" rx="2" fill="#1a1a1a"/>
  
  <!-- Экран с кодом -->
  <rect x="24" y="29" width="8" height="2" rx="1" fill="#ff7b00"/>
  <rect x="24" y="32" width="12" height="2" rx="1" fill="#ffffff"/>
  <rect x="24" y="35" width="10" height="2" rx="1" fill="#ffffff"/>
  <rect x="24" y="38" width="14" height="2" rx="1" fill="#ffffff"/>
  <rect x="24" y="41" width="6" height="2" rx="1" fill="#ff7b00"/>
  
  <!-- Подставка монитора -->
  <rect x="35" y="50" width="10" height="5" rx="2" fill="#ffffff" opacity="0.9"/>
  <rect x="30" y="55" width="20" height="3" rx="1" fill="#ffffff" opacity="0.9"/>
  
  <!-- Клавиатура -->
  <rect x="15" y="60" width="20" height="8" rx="2" fill="#ffffff" opacity="0.9"/>
  <rect x="17" y="62" width="2" height="2" rx="1" fill="#1a1a1a"/>
  <rect x="20" y="62" width="2" height="2" rx="1" fill="#1a1a1a"/>
  <rect x="23" y="62" width="2" height="2" rx="1" fill="#1a1a1a"/>
  <rect x="26" y="62" width="2" height="2" rx="1" fill="#1a1a1a"/>
  <rect x="29" y="62" width="2" height="2" rx="1" fill="#1a1a1a"/>
  <rect x="32" y="62" width="2" height="2" rx="1" fill="#1a1a1a"/>
</svg>
