<svg width="80" height="80" viewBox="0 0 80 80" fill="none" xmlns="http://www.w3.org/2000/svg">
  <defs>
    <linearGradient id="fullstackGrad" x1="0%" y1="0%" x2="100%" y2="100%">
      <stop offset="0%" style="stop-color:#7b5cff;stop-opacity:1" />
      <stop offset="100%" style="stop-color:#5a3fd9;stop-opacity:1" />
    </linearGradient>
  </defs>
  
  <!-- Фон -->
  <circle cx="40" cy="40" r="38" fill="url(#fullstackGrad)" stroke="#ffffff" stroke-width="2"/>
  
  <!-- Сервер (слева) -->
  <rect x="15" y="25" width="20" height="30" rx="2" fill="#ffffff" opacity="0.9"/>
  <rect x="17" y="27" width="16" height="2" rx="1" fill="#7b5cff"/>
  <rect x="17" y="30" width="16" height="2" rx="1" fill="#7b5cff"/>
  <rect x="17" y="33" width="16" height="2" rx="1" fill="#7b5cff"/>
  <rect x="17" y="36" width="16" height="2" rx="1" fill="#7b5cff"/>
  <rect x="17" y="39" width="16" height="2" rx="1" fill="#7b5cff"/>
  <rect x="17" y="42" width="16" height="2" rx="1" fill="#7b5cff"/>
  <rect x="17" y="45" width="16" height="2" rx="1" fill="#7b5cff"/>
  <rect x="17" y="48" width="16" height="2" rx="1" fill="#7b5cff"/>
  
  <!-- Монитор (справа) -->
  <rect x="45" y="25" width="20" height="15" rx="2" fill="#ffffff" opacity="0.9"/>
  <rect x="47" y="27" width="16" height="11" rx="1" fill="#1a1a1a"/>
  <rect x="49" y="29" width="4" height="1" rx="0.5" fill="#7b5cff"/>
  <rect x="49" y="31" width="6" height="1" rx="0.5" fill="#ffffff"/>
  <rect x="49" y="33" width="5" height="1" rx="0.5" fill="#ffffff"/>
  <rect x="49" y="35" width="7" height="1" rx="0.5" fill="#ffffff"/>
  
  <!-- Подставка монитора -->
  <rect x="52" y="40" width="6" height="3" rx="1" fill="#ffffff" opacity="0.9"/>
  <rect x="48" y="43" width="14" height="2" rx="1" fill="#ffffff" opacity="0.9"/>
  
  <!-- Стрелки соединения -->
  <path d="M35 40 L45 40" stroke="#ffffff" stroke-width="2" fill="none" marker-end="url(#arrowhead)"/>
  <path d="M40 35 L40 45" stroke="#ffffff" stroke-width="2" fill="none" marker-end="url(#arrowhead)"/>
  
  <defs>
    <marker id="arrowhead" markerWidth="10" markerHeight="7" refX="9" refY="3.5" orient="auto">
      <polygon points="0 0, 10 3.5, 0 7" fill="#ffffff"/>
    </marker>
  </defs>
</svg>
