<svg width="80" height="80" viewBox="0 0 80 80" fill="none" xmlns="http://www.w3.org/2000/svg">
  <defs>
    <linearGradient id="mobileGrad" x1="0%" y1="0%" x2="100%" y2="100%">
      <stop offset="0%" style="stop-color:#ff3b7f;stop-opacity:1" />
      <stop offset="100%" style="stop-color:#cc1f5c;stop-opacity:1" />
    </linearGradient>
  </defs>
  
  <!-- Фон -->
  <circle cx="40" cy="40" r="38" fill="url(#mobileGrad)" stroke="#ffffff" stroke-width="2"/>
  
  <!-- Смартфон -->
  <rect x="30" y="15" width="20" height="35" rx="4" fill="#ffffff" opacity="0.9"/>
  <rect x="32" y="17" width="16" height="31" rx="2" fill="#1a1a1a"/>
  
  <!-- Экран -->
  <rect x="33" y="20" width="14" height="20" rx="1" fill="#ff3b7f"/>
  
  <!-- Иконки приложений -->
  <rect x="35" y="22" width="3" height="3" rx="1" fill="#ffffff"/>
  <rect x="39" y="22" width="3" height="3" rx="1" fill="#ffffff"/>
  <rect x="43" y="22" width="3" height="3" rx="1" fill="#ffffff"/>
  
  <rect x="35" y="26" width="3" height="3" rx="1" fill="#ffffff"/>
  <rect x="39" y="26" width="3" height="3" rx="1" fill="#ffffff"/>
  <rect x="43" y="26" width="3" height="3" rx="1" fill="#ffffff"/>
  
  <rect x="35" y="30" width="3" height="3" rx="1" fill="#ffffff"/>
  <rect x="39" y="30" width="3" height="3" rx="1" fill="#ffffff"/>
  <rect x="43" y="30" width="3" height="3" rx="1" fill="#ffffff"/>
  
  <rect x="35" y="34" width="3" height="3" rx="1" fill="#ffffff"/>
  <rect x="39" y="34" width="3" height="3" rx="1" fill="#ffffff"/>
  <rect x="43" y="34" width="3" height="3" rx="1" fill="#ffffff"/>
  
  <!-- Кнопка Home -->
  <circle cx="40" cy="45" r="2" fill="#ffffff" opacity="0.7"/>
  
  <!-- Планшет -->
  <rect x="15" y="55" width="25" height="18" rx="3" fill="#ffffff" opacity="0.9"/>
  <rect x="17" y="57" width="21" height="14" rx="1" fill="#1a1a1a"/>
  <rect x="18" y="59" width="19" height="10" rx="1" fill="#ff3b7f"/>
  
  <!-- Иконки на планшете -->
  <rect x="20" y="61" width="4" height="4" rx="1" fill="#ffffff"/>
  <rect x="25" y="61" width="4" height="4" rx="1" fill="#ffffff"/>
  <rect x="30" y="61" width="4" height="4" rx="1" fill="#ffffff"/>
  <rect x="20" y="66" width="4" height="4" rx="1" fill="#ffffff"/>
  <rect x="25" y="66" width="4" height="4" rx="1" fill="#ffffff"/>
  <rect x="30" y="66" width="4" height="4" rx="1" fill="#ffffff"/>
  
  <!-- Кнопка Home планшета -->
  <rect x="26" y="70" width="8" height="2" rx="1" fill="#ffffff" opacity="0.7"/>
</svg>
